FILE "Garou Densetsu 2 (1993)(Pony Canyon)(JP).img" BINARY
  TRACK 01 AUDIO
    ISRC JPPC09303130
    INDEX 01 00:00:00
  TRACK 02 AUDIO
    ISRC JPPC09303140
    INDEX 00 05:03:35
    INDEX 01 05:07:10
  TRACK 03 AUDIO
    ISRC JPPC09303150
    INDEX 01 05:12:00
  TRACK 04 AUDIO
    ISRC JPPC09303160
    INDEX 01 05:30:40
  TRACK 05 AUDIO
    ISRC JPPC09303170
    INDEX 01 06:15:05
  TRACK 06 AUDIO
    ISRC JPPC09303180
    INDEX 01 06:46:05
  TRACK 07 AUDIO
    ISRC JPPC09303190
    INDEX 00 07:24:20
    INDEX 01 07:25:45
  TRACK 08 AUDIO
    ISRC JPPC09303200
    INDEX 01 07:41:60
  TRACK 09 AUDIO
    ISRC JPPC09303210
    INDEX 00 09:34:45
    INDEX 01 09:36:20
  TRACK 10 AUDIO
    ISRC JPPC09303220
    INDEX 01 11:29:25
  TRACK 11 AUDIO
    ISRC JPPC09303230
    INDEX 01 13:16:02
  TRACK 12 AUDIO
    ISRC JPPC09303240
    INDEX 00 13:39:20
    INDEX 01 13:40:45
  TRACK 13 AUDIO
    ISRC JPPC09303250
    INDEX 01 16:14:42
  TRACK 14 AUDIO
    ISRC JPPC09303260
    INDEX 01 17:59:37
  TRACK 15 AUDIO
    ISRC JPPC09303270
    INDEX 01 20:45:62
  TRACK 16 AUDIO
    ISRC JPPC09303280
    INDEX 01 23:13:02
  TRACK 17 AUDIO
    ISRC JPPC09303290
    INDEX 00 25:43:62
    INDEX 01 25:45:22
  TRACK 18 AUDIO
    ISRC JPPC09303300
    INDEX 00 27:22:35
    INDEX 01 27:23:60
  TRACK 19 AUDIO
    ISRC JPPC09303310
    INDEX 01 29:55:72
  TRACK 20 AUDIO
    ISRC JPPC09303320
    INDEX 00 31:33:72
    INDEX 01 31:35:42
  TRACK 21 AUDIO
    ISRC JPPC09303330
    INDEX 00 33:51:07
    INDEX 01 33:52:30
  TRACK 22 AUDIO
    ISRC JPPC09303340
    INDEX 01 34:28:32
  TRACK 23 AUDIO
    ISRC JPPC09303350
    INDEX 00 36:27:72
    INDEX 01 36:29:00
  TRACK 24 AUDIO
    ISRC JPPC09303360
    INDEX 01 36:38:57
  TRACK 25 AUDIO
    ISRC JPPC09303370
    INDEX 00 37:21:15
    INDEX 01 37:22:32
  TRACK 26 AUDIO
    ISRC JPPC09303380
    INDEX 00 39:09:30
    INDEX 01 39:10:50
  TRACK 27 AUDIO
    ISRC JPPC09303390
    INDEX 01 39:29:40
  TRACK 28 AUDIO
    ISRC JPPC09303400
    INDEX 00 40:09:12
    INDEX 01 40:11:62
  TRACK 29 AUDIO
    ISRC JPPC09303410
    INDEX 01 40:46:02
  TRACK 30 AUDIO
    ISRC JPPC09303420
    INDEX 01 41:19:12
  TRACK 31 AUDIO
    ISRC JPPC09303430
    INDEX 01 41:51:10
  TRACK 32 AUDIO
    ISRC JPPC09303440
    INDEX 01 42:21:70
  TRACK 33 AUDIO
    ISRC JPPC09303450
    INDEX 01 42:58:40
  TRACK 34 AUDIO
    ISRC JPPC09303460
    INDEX 01 43:30:72
  TRACK 35 AUDIO
    ISRC JPPC09303470
    INDEX 01 43:57:27
  TRACK 36 AUDIO
    ISRC JPPC09303480
    INDEX 01 44:22:55
  TRACK 37 AUDIO
    ISRC JPPC09303490
    INDEX 01 44:37:72
  TRACK 38 AUDIO
    ISRC JPPC09303500
    INDEX 01 45:00:57
  TRACK 39 AUDIO
    ISRC JPPC09303510
    INDEX 01 45:17:50
  TRACK 40 AUDIO
    ISRC JPPC09303520
    INDEX 01 45:51:07
  TRACK 41 AUDIO
    ISRC JPPC09303530
    INDEX 01 46:34:45
  TRACK 42 AUDIO
    ISRC JPPC09303540
    INDEX 01 47:41:57
